<?xml version="1.0" encoding="utf-8"?>
<!-- Generator: Adobe Illustrator 27.2.0, SVG Export Plug-In . SVG Version: 6.00 Build 0)  -->
<svg version="1.1" id="Layer_1" xmlns="http://www.w3.org/2000/svg" xmlns:xlink="http://www.w3.org/1999/xlink" x="0px" y="0px"
	 viewBox="0 0 526 525" style="enable-background:new 0 0 526 525;" xml:space="preserve">
<style type="text/css">
	.st0{fill-rule:evenodd;clip-rule:evenodd;fill:#395542;}
</style>
<g>
	<path class="st0" d="M263,144.9c19.8,0,42.7,16.1,60.4,42.2c17.7,26.1,29.9,61.6,29.9,97.4c0,56-40.4,96.6-90.3,96.6
		c-49.9,0-90.3-40.7-90.3-96.6c0-35.8,12.2-71.2,29.9-97.4C220.3,161,243.2,144.9,263,144.9L263,144.9z M263,130.8
		c-27,0-52.8,19.9-72.1,48.4c-19.3,28.5-32.3,66.3-32.3,105.3c0,62.9,46.8,110.8,104.4,110.8c57.6,0,104.4-47.9,104.4-110.8
		c0-39-13-76.8-32.3-105.3C315.8,150.7,290,130.8,263,130.8L263,130.8z"/>
	<path class="st0" d="M263,20.8c64.4,0,122.9,25.1,166.2,66l-70.6,70.6c-3,2.7-3.1,7.4-0.3,10.2s7.5,2.8,10.2-0.3l70.6-70.5
		c40.9,43.4,66,101.8,66,166.2c0,133.9-108.4,242.2-242.2,242.2c-64.4,0-122.8-25.1-166.2-66.1l62.8-62.8c4.6-4.5,1.3-12.3-5.2-12.1
		c-1.8,0.1-3.5,0.8-4.8,2.1l-62.8,62.8C45.9,385.8,20.7,327.4,20.7,263C20.7,129.1,129.1,20.8,263,20.8L263,20.8z M263,6.7
		C121.5,6.7,6.6,121.5,6.6,263S121.5,519.3,263,519.3c141.5,0,256.3-114.8,256.3-256.3C519.3,121.5,404.5,6.7,263,6.7L263,6.7z"/>
</g>
</svg>
