<?xml version="1.0" encoding="utf-8"?>
<!-- Generator: Adobe Illustrator 27.2.0, SVG Export Plug-In . SVG Version: 6.00 Build 0)  -->
<svg version="1.1" id="Layer_1" xmlns="http://www.w3.org/2000/svg" xmlns:xlink="http://www.w3.org/1999/xlink" x="0px" y="0px"
	 viewBox="0 0 537 541.5" style="enable-background:new 0 0 537 541.5;" xml:space="preserve">
<style type="text/css">
	.st0{fill:#395542;}
</style>
<g>
	<path class="st0" d="M0,275.5c0,146.7,119.3,266,266,266s266-119.3,266-266S412.7,9.5,266,9.5S0,128.8,0,275.5z M16.8,275.5
		c0-137.8,112-249.8,249.8-249.8c63.8,0,124.3,24.1,170.8,67.8l-82.1,82c0.2,0.1,0.3,0.2,0.5,0.4c2.4,2.5,5.2,4.6,7.9,6.8
		c1.3,1.1,2.6,2,3.9,2.9l80.4-80.9c43.7,46.5,67.8,107,67.8,170.8c0,137.8-112,249.8-249.8,249.8c-63.8,0-124.3-24.1-170.8-67.8
		l63.3-63.3c-3.6-3.9-7.5-7.7-11.4-11.4L84,446.3C40.3,399.8,16.8,339.3,16.8,275.5z"/>
	<path class="st0" d="M173.5,379.1l0.1-0.1v38.6c0,28,23,51,51,51h82.3c28,0,51-23,51-51l0-184.8c0-10.6-2.2-21.3-6.7-30.8l0.1-0.1
		c-0.2-0.5-0.4-1.1-0.4-1.7c-0.6-0.8-1.1-1.7-1.6-2.6c-1.7-3-3.8-5.7-5.5-8.6c-0.3-0.5-0.5-1-0.6-1.5l-23.4-31.3
		c-5.6-7.3-9.5-15.7-11.8-24.6l-0.6-1.1l0.6-0.6c9.5-3.9,15.7-12.9,15.7-23c0-13.4-11.2-24.6-24.6-24.6h-66.6
		c-13.4,0-24.6,11.2-24.6,24.6c0,10.1,6.2,19,15.7,23h1.7l-0.6,1.1c-2.2,9-6.2,17.4-11.8,24.6l-24.1,31.9
		c-9.5,12.9-14.6,28.6-14.6,44.8v123.2l-0.1,0.1c0,2-0.1,4-0.2,5.9c0,3.2-0.2,6.5-0.5,9.7C173.3,373.9,173.3,376.5,173.5,379.1z
		 M299.6,115.9h-67.2c-5,0-9-3.9-9-9.5c0-5,3.9-9,9-9h67.2c5,0,9,3.9,9,9C308.6,111.4,304.7,115.9,299.6,115.9z M189.5,347.1
		c0-1.3,0-2.5,0-3.8c-0.1-0.5-0.2-0.9-0.3-1.4c-0.2-0.9-0.2-1.7-0.1-2.4V233c0-12.9,3.9-25.2,11.8-35.8l24.1-31.9
		c7.3-9.5,12.3-20.7,15.1-32.5v-1.1h51.5v1.1c2.8,12.3,7.8,23,14.6,32.5l24.6,31.9c0,0.1,0.1,0.1,0.1,0.2c0.7,0.7,1.2,1.6,1.4,2.5
		c0.7,1,1.3,2.1,1.6,3.2c2.4,3.1,4.1,6.9,5,10.2c0.1,0.1,0.2,0.3,0.3,0.5c0.1,0.1,0.1,0.1,0.1,0.2l0.1-0.1c2.2,6.2,3.4,12.9,3.4,19
		l0,184.8c0,19.6-16.2,35.8-35.8,35.8h-81.7c-19.6,0-35.8-16.2-35.8-35.8v-54.3l0,0c0-1.1,0.1-2.3,0.2-3.4c0-3.4,0-6.8,0-10.2
		C189.6,348.8,189.6,347.9,189.5,347.1z"/>
	<path class="st0" d="M210.9,332.8c0.2,2.4,0.4,4.8,0.4,7.2c0,0.7-0.1,1.3-0.3,1.8l0.1-0.1v76.2c0,4.5,3.4,7.8,7.8,7.8
		s7.8-3.4,7.8-7.8v-91.3l0.5-0.5c-0.1-7.9-0.5-15.7,0-23.5l-0.3,0.3v-70c0-4.5,1.7-9.5,4.5-13.4l24.1-31.9c1.1-1.7,1.7-3.9,1.7-5.6
		c-0.6-2.2-1.1-3.9-2.8-5c-1.7-1.1-2.8-1.7-4.5-1.7c-2.2,0-4.5,1.1-6.2,3.4l-24.1,31.9c-5,6.7-7.3,14.6-7.3,22.4v85.6l-0.4,0.4
		c0.4,1.2,0.3,2.5-0.2,3.6c0,1.5-0.2,2.9-0.3,4.4c0,0.3,0,0.6-0.1,0.8c0,0.4,0,0.8-0.1,1.1c0,0.5,0.1,1.1,0,1.6
		c0,0.3-0.1,0.5-0.1,0.7c0,0.2,0,0.5,0,0.8S211.1,332.5,210.9,332.8z"/>
</g>
</svg>
