<?xml version="1.0" encoding="utf-8"?>
<!-- Generator: Adobe Illustrator 27.2.0, SVG Export Plug-In . SVG Version: 6.00 Build 0)  -->
<svg version="1.1" id="Layer_1" xmlns="http://www.w3.org/2000/svg" xmlns:xlink="http://www.w3.org/1999/xlink" x="0px" y="0px"
	 viewBox="0 0 520 523" style="enable-background:new 0 0 520 523;" xml:space="preserve">
<style type="text/css">
	.st0{fill-rule:evenodd;clip-rule:evenodd;fill:#395542;}
</style>
<g>
	<path class="st0" d="M260,18.8c64.4,0,122.8,25.1,166.2,66L325.1,185.9c-2.8,2.8-2.8,7.3-0.1,10.1c2.8,2.8,7.3,2.8,10.1-0.1
		L436.1,94.8c40.9,43.4,66.1,101.8,66.1,166.2c0,133.9-108.3,242.2-242.2,242.2c-64.4,0-122.9-25.1-166.2-66.1l55.7-55.6
		c4.6-4.5,1.3-12.3-5.1-12.1c-1.8,0-3.6,0.8-4.9,2.1l-55.7,55.7C42.9,383.8,17.8,325.4,17.8,261C17.8,127.1,126.1,18.8,260,18.8
		L260,18.8z M260,4.6C118.5,4.6,3.7,119.5,3.7,261c0,141.5,114.9,256.3,256.4,256.3S516.3,402.5,516.3,261
		C516.3,119.5,401.5,4.6,260,4.6L260,4.6z"/>
	<path class="st0" d="M250,159.9c0.9,0.8,2,1.7,2.9,2.5c18.7,15.5,33,27.8,33.5,57.5c-3.8,0.7-7.3-0.2-11.2,1.3
		c-8.8,3.3-3.9,16.5,5,13.2c17.4-6.5,31.9-3.1,43,4.8c10.7,7.6,17.1,19.8,18.6,30.4c-4.5,0.8-8.2-0.2-12.9,1.2
		c-9.4,2.4-5.2,16.6,4,13.5c32.6-9.6,57.2-4.2,74.9,7.1c16.8,10.9,26.4,27.7,30.1,42.5c-19,32.4-70.8,52.5-120.3,31.2
		c-1.2-3.5-2.5-6.9-4.1-10.3c-8.4-18.3-24.1-34.9-48.1-46.1c9.3-33,1.4-63-19.5-80.6c11.3-21.8,12.2-42.5,6.6-60.9
		C251.8,164.9,250.9,162.4,250,159.9L250,159.9z M207.6,109.4c2.1,4.8,4.5,9.1,7,13.2c9.4,16.7,19.5,32.7,24.4,48.9
		c5.1,16.9,5.1,33.6-6.7,53.9c-1.8,3.2-0.9,7.3,2.2,9.4c20,13.4,28.8,42.1,17.2,75.5c-1.2,3.5,0.5,7.4,4,8.9
		c24.1,9.8,37.2,24.8,45,41.7c7.1,15.4,8.7,32.3,9.3,47.6c-4.8,2.5-11.1,5.3-19.9,7.7c-37.3,10.4-63,7.4-79.8-4.3
		c-16.8-11.7-26.3-33.2-28.9-64c-0.2-2.7-2-5.1-4.6-6.1c-36.8-13.3-53.2-67.7-29-96.9c1.8-2.1,2.2-5.2,0.9-7.7
		c-8.4-16.6-12.4-36.2-8.6-54.6c3.8-18.4,14.9-35.9,38.4-49.5C184.7,129.5,198.7,122.9,207.6,109.4L207.6,109.4z M200.9,89.4
		c-2.7,19.2-19.3,25.5-29.5,31.4c-26.5,15.3-40.7,36.7-45.2,58.9c-4.2,20.7,0.9,41.3,9.2,59.5c-27,36.9-9.6,94.5,32.7,113.2
		c3.3,31.4,13.5,56.7,34.1,71.1c20.9,14.5,50.6,17.5,88.9,7c10.4-2.8,22.4-6.5,30.6-11.8c2-1.3,3.2-3.6,3.2-6
		c-0.2-9.5-0.9-20-3-30.7c54.2,18.1,110.1-4.4,130.6-44c0.7-1.4,1-3.1,0.6-4.7c-4-19.3-16.7-40.1-37.8-53.7
		c-15.3-9.8-36.2-12.9-59.6-11.4c-1.8-15.2-10.4-30.5-24.5-40.5c-8.6-6.1-19.5-9-31.3-9.5c-1.2-33.4-19.5-51.2-38.1-66.7
		c-11.2-9.3-22.6-18.1-31.6-30.7c-6.9-9.7-12.4-22.5-15.2-32.7C213.2,80.9,202,81.6,200.9,89.4L200.9,89.4z"/>
	<path class="st0" d="M194.7,161.9c10.6,1.8,18.6,14.1,16.2,28.7c-2.3,14.7-13.8,23.7-24.4,21.9c-10.6-1.8-18.6-14.1-16.2-28.8
		C172.7,169.2,184.1,160.1,194.7,161.9z M197,148c-19.5-3.3-37.2,12.4-40.6,33.5c-3.4,21,8.4,41.8,27.9,45.1
		c19.5,3.3,37.2-12.5,40.5-33.5C228.3,172,216.5,151.3,197,148L197,148z"/>
	<path class="st0" d="M187.5,253.3c12.4-4.7,28.1,3.4,34.2,20c6.2,16.6-0.3,33.1-12.7,37.8c-12.4,4.7-28.1-3.4-34.2-20
		C168.7,274.5,175.1,258,187.5,253.3z M182.6,240c-20.8,7.9-29.4,33.4-21,56.1c8.4,22.6,31.6,36.1,52.4,28.2
		c20.8-7.9,29.4-33.4,21-56.1C226.6,245.6,203.4,232.1,182.6,240z"/>
	<path class="st0" d="M219.1,358.4c4.9-11,19.9-15.9,34.3-9.3c14.4,6.7,20.7,21.5,15.8,32.5c-4.9,11-19.9,15.9-34.4,9.2
		C220.5,384.2,214.2,369.4,219.1,358.4L219.1,358.4z M206.3,352.5c-8.5,19.1,2.6,41.8,22.9,51.3c20.4,9.4,44.4,2.9,52.8-16.2
		c8.5-19.1-2.5-41.9-22.9-51.3C238.8,326.9,214.8,333.4,206.3,352.5z"/>
</g>
</svg>
