<?xml version="1.0" encoding="utf-8"?>
<!-- Generator: Adobe Illustrator 27.2.0, SVG Export Plug-In . SVG Version: 6.00 Build 0)  -->
<svg version="1.1" id="Layer_1" xmlns="http://www.w3.org/2000/svg" xmlns:xlink="http://www.w3.org/1999/xlink" x="0px" y="0px"
	 viewBox="0 0 527 527" style="enable-background:new 0 0 527 527;" xml:space="preserve">
<style type="text/css">
	.st0{fill:#395542;}
</style>
<g>
	<path class="st0" d="M264,23.2c63.5,0,120.7,24.3,163.6,64.1L327.5,188.7c-3.7,3.7-3.7,9.3,0,12.4c3.7,3.7,9.3,3.7,12.4,0
		l100.2-100.8c39.8,42.9,64.1,100.8,64.1,163.6c0,133.2-107.6,240.8-240.8,240.8c-63.5,0-120.7-24.3-163.6-64.1l35.5-35.5
		c3.7-3.7,3.7-9.3,0-12.4c-1.9-1.9-3.7-2.5-6.2-2.5s-4.4,1.2-6.2,2.5l-35.5,35.5C47.5,384.7,23.2,327.5,23.2,264
		C23.2,130.8,130.8,23.2,264,23.2L264,23.2z M264,5.2C121.5,5.2,5.2,121.5,5.2,264S120.9,522.8,264,522.8
		c142.5,0,258.8-115.7,258.8-258.8C522.8,121.5,406.5,5.2,264,5.2L264,5.2z"/>
	<path class="st0" d="M157.6,257.2c-3.7-1.2-8.1,1.2-8.7,5.6c-4.4,18-3.7,39.2,1.9,57.9c5.6,18.7,15.6,35.5,32.4,41.7
		c3.7,1.2,8.1-0.6,9.3-4.4c1.2-3.7-0.6-8.1-4.4-9.3c-10-3.7-18.7-15.6-23-31.7c-4.4-16.2-5-35.5-1.9-50.4
		C163.8,261.5,161.3,257.8,157.6,257.2L157.6,257.2z"/>
	<path class="st0" d="M185.6,194.3c-3.7-1.9-8.1-0.6-10,2.5c-6.2,11.2-13.1,23.6-18,38.6c-1.2,3.7,0.6,8.1,4.4,9.3
		c3.7,1.2,8.1-0.6,9.3-4.4c5-13.7,11.2-26.1,17.4-36.1C190,201.2,188.7,196.2,185.6,194.3L185.6,194.3z"/>
	<path class="st0" d="M265.2,196.8c16.8,28.6,28,64.7,28.6,94c0.6,20.5-3.7,44.8-16.8,63.5c-12.4,18.7-33,31.7-67.8,31.7
		s-55.4-13.1-67.8-31.7c-12.4-18.7-16.8-42.9-16.8-63.5c0.6-32.4,12.4-68.4,28.6-96.4c16.2-27.4,38-45.4,55.4-45.4
		C226,148.9,248.4,168.2,265.2,196.8L265.2,196.8z M141.4,187.5c-18,29.9-29.9,67.8-31.1,103.3c-0.6,23,4.4,49.8,19.3,71.6
		c14.9,21.8,41.1,38,79.6,38s64.7-16.2,79.6-38s19.3-49.2,19.3-71.6c-0.6-32.4-12.4-70.3-30.5-100.8s-41.7-54.8-68.4-54.8
		C182.5,135.2,158.9,157.6,141.4,187.5L141.4,187.5z"/>
	<path class="st0" d="M209.9,191.2c-3.7,0.6-6.2,5-5.6,8.7c5,23.6,6.8,46,6.2,67.8c0,3.7,3.1,7.5,6.8,7.5s7.5-3.1,7.5-6.8
		c0.6-23-1.2-46.7-6.2-71.6C217.3,192.4,213.6,190,209.9,191.2L209.9,191.2z"/>
	<path class="st0" d="M217.3,297c-3.7-0.6-7.5,2.5-8.1,6.8c-0.6,10.6-2.5,20.5-4.4,31.7c-0.6,3.7,1.9,7.5,6.2,8.1
		c3.7,0.6,7.5-1.9,8.1-5.6c1.9-10.6,3.7-21.8,4.4-33C224.2,300.7,221.1,297,217.3,297L217.3,297z"/>
	<path class="st0" d="M266.5,309.4c-3.7-1.2-8.1,1.2-8.7,5c-4.4,16.2-13.1,29.2-24.9,33c-3.7,1.2-5.6,5.6-4.4,9.3
		c1.2,3.7,5.6,5.6,9.3,4.4c18-6.2,29.2-24.3,34.2-43.6C272.7,314.4,270.2,310.7,266.5,309.4L266.5,309.4z"/>
	<path class="st0" d="M250.3,214.2c-3.7,1.2-5.6,5.6-4.4,9.3c8.7,23,14.9,52.9,14.9,65.3c0,3.7,3.1,7.5,7.5,7.5
		c3.7,0,7.5-3.1,7.5-7.5c0-16.2-6.2-45.4-15.6-70.3C258.4,214.8,254,213,250.3,214.2L250.3,214.2z"/>
	<path class="st0" d="M341.8,351.7c-8.7,2.5-19.3,3.1-28.6,1.9c-3.7-0.6-7.5,1.9-8.1,6.2c-0.6,3.7,1.9,7.5,6.2,8.1
		c11.8,1.9,24.3,1.2,34.8-1.9c3.7-1.2,6.2-5,5-8.7C349.9,353,346.1,350.5,341.8,351.7L341.8,351.7z"/>
	<path class="st0" d="M396.5,327.5c-8.7,5-20.5,11.2-31.7,15.6c-3.7,1.2-5.6,5.6-4.4,9.3c1.2,3.7,5.6,5.6,9.3,4.4
		c11.8-4.4,24.9-11.2,34.2-16.8c3.1-1.9,4.4-6.2,2.5-10C404,326.2,399.6,325,396.5,327.5L396.5,327.5z"/>
	<path class="st0" d="M320,216.7c-3.7,0-7.5,3.1-7.5,6.8c0,3.7,3.1,7.5,6.8,7.5c23.6,0.6,54.8,11.2,80.3,26.1
		c24.9,15.6,42.3,35.5,42.3,51c0,15.6-17.4,36.1-42.3,51c-24.9,15.6-56.6,25.5-79.6,26.1c-9.3,0-18.7-0.6-28-2.5
		c-3.7-0.6-7.5,1.9-8.7,5.6c-0.6,3.7,1.9,7.5,5.6,8.7c10,1.9,20.5,2.5,30.5,2.5c26.8-0.6,59.7-11.8,87.1-28.6
		c26.8-16.8,49.2-38.6,49.2-63.5c0-24.9-21.8-47.3-49.2-63.5C380.4,228.5,347.4,217.3,320,216.7L320,216.7z"/>
	<path class="st0" d="M340.5,292.6c-3.7,0-6.8,3.7-6.8,7.5c0,3.7,3.7,6.8,7.5,6.8c16.2-0.6,32.4,0.6,48.5,5c3.7,1.2,8.1-1.2,8.7-5
		c1.2-3.7-1.2-8.1-5-8.7C376,293.2,358.6,291.4,340.5,292.6L340.5,292.6z"/>
	<path class="st0" d="M325.6,245.3c-3.7-0.6-7.5,1.9-8.7,5.6c-0.6,3.7,1.9,7.5,5.6,8.7c13.7,2.5,35.5,8.7,52.3,17.4
		c3.7,1.9,8.1,0.6,10-3.1c1.9-3.7,0.6-8.1-3.1-10C362.9,254.7,340.5,247.8,325.6,245.3L325.6,245.3z"/>
</g>
</svg>
