<?xml version="1.0" encoding="utf-8"?>
<!-- Generator: Adobe Illustrator 27.2.0, SVG Export Plug-In . SVG Version: 6.00 Build 0)  -->
<svg version="1.1" id="Layer_1" xmlns="http://www.w3.org/2000/svg" xmlns:xlink="http://www.w3.org/1999/xlink" x="0px" y="0px"
	 viewBox="0 0 439.9 445.8" style="enable-background:new 0 0 439.9 445.8;" xml:space="preserve">
<style type="text/css">
	.st0{fill:#395542;}
</style>
<g>
	<path class="st0" d="M270.4,265.5c-10.2,0-26.1,3.9-37.8,14.9c-2.9,2.7-5.3,5.7-7.4,8.8v-16.3c1.4,0.3,2.8,0.4,4.5,0.4
		c10.4,0,25.9-4.7,37.1-15.3c11.7-11.1,15.9-26.3,15.9-36c0-4.6-0.9-7.6-2.8-9.4c-1.2-1.1-3.4-2.5-9.6-2.5
		c-10.2,0-26.2,3.9-37.8,14.9c-2.9,2.7-5.3,5.7-7.4,8.8v-5.4l14.9-14.9c8.7-2.1,18.5-6.5,26.2-13.9c8.4-8,13.3-18.7,15.1-27.9v0.1
		l0.6-0.6c0.2-2.3,0.5-4.7,0.6-7c0.1-2.5-0.7-4.9-0.9-7.4l-0.2,0.2c-0.4-1-0.9-1.8-1.6-2.4c-1.1-1.1-3.3-2.5-9.2-2.5
		c-8.1,0-25,3.1-37.5,14.9c-3,2.8-5.5,5.9-7.6,9.1v-10c7.7-5.7,18.3-22.3,18.3-38.3c0-20.6-15.4-34.6-22-36
		c-0.3-0.1-1.1-0.1-1.4-0.1c-8.5,0-22.6,16.9-22.6,36.2c0,16,10.6,32.6,18.3,38.3v10.1c-2.2-3.3-4.7-6.4-7.8-9.3
		c-12.5-11.8-29.5-14.9-37.6-14.9c-5.9,0-8.1,1.4-9.2,2.4c-1.8,1.7-2.7,4.7-2.7,9c0,10.3,4.9,25.5,16,35.9
		c11.2,10.6,26.6,15.3,36.9,15.3c1.6,0,3.1-0.2,4.4-0.4v8.5l-5.3,5.3c-1.1-1.2-2.1-2.4-3.3-3.5c-12.9-12.2-30.3-15.4-38.5-15.4
		c-5.8,0-7.9,1.4-9.1,2.4c-1.8,1.7-2.7,4.6-2.7,8.9c0,7.9,3.5,24.5,16.5,36.8c1.3,1.2,2.7,2.4,4.1,3.4l-4.1,4.1
		c-0.1,0.1-0.1,0.2-0.2,0.2c-1.7-0.2-3.3-0.3-4.6-0.3c-5.8,0-7.9,1.4-9,2.4c-1.8,1.7-2.7,4.6-2.7,8.9c0,1.3,0.2,2.9,0.4,4.7
		c0.2,0.3,0.4,0.7,0.5,1c0.4,1.2,0.6,2.4,0.7,3.6c0.1,0.7,0.2,1.3,0.2,2c0,0.1,0,0.1,0,0.2c0,0.2,0.1,0.4,0.1,0.6
		c0.2,0.3,0.3,0.6,0.3,0.9c0.2,1.3,0.6,2.5,0.8,3.7c0,0.1,0.1,0.1,0.1,0.2l0.1-0.1c2.5,6.7,6.6,13.9,13.1,20
		c11.6,10.9,27.3,15.8,37.8,15.8c1.7,0,3.2-0.2,4.6-0.4v26.9c0,2.6,2.1,4.7,4.7,4.7c2.6,0,4.7-2.1,4.7-4.7v-26.8
		c1.4,0.3,2.8,0.4,4.5,0.4c10.4,0,25.9-4.7,37.1-15.3c11.7-11.1,15.9-26.3,15.9-36c0-4.6-0.9-7.6-2.8-9.4
		C278.9,266.9,276.6,265.5,270.4,265.5z M239.2,231.8c10.3-9.7,24.5-12.3,31.3-12.3c1.2,0,2.2,0.1,2.8,0.2
		c0.7,4.6-1.1,20.3-12.8,31.4c-9.2,8.7-22.3,12.7-30.6,12.7c-1.9,0-3.1-0.2-3.7-0.4C224.8,259.5,226.9,243.4,239.2,231.8z
		 M239.5,174c10.3-9.7,24.8-12.3,31-12.3c1,0,1.8,0.1,2.4,0.1c0.6,4.6-1.4,19.9-12.9,30.8c-9.2,8.7-22.2,12.7-30.3,12.7
		c-1.7,0-2.8-0.2-3.3-0.3C225.1,201.1,227.5,185.4,239.5,174z M214.7,204.9c-0.5,0.1-1.6,0.3-3.2,0.3c-8.1,0-21.1-4-30.4-12.7
		c-11.5-10.8-13.5-26.2-12.9-30.8c3.9-0.5,21.4,0.9,33.4,12.2C213.6,185.3,216,201,214.7,204.9z M166.6,218.8
		c3.8-0.5,21.8,1,34.2,12.7c12.4,11.7,15,27.7,13.7,31.8c-0.5,0.1-1.6,0.3-3.2,0.3c-8.3,0-21.7-4.1-31.3-13.2
		C168.2,239.2,165.9,223.6,166.6,218.8z M214.5,318.8c-0.5,0.1-1.6,0.3-3.2,0.3c-8.3,0-21.7-4.1-31.3-13.2
		c-11.8-11.2-14-26.8-13.4-31.6c3.8-0.5,21.8,1,34.2,12.7C213.2,298.7,215.7,314.8,214.5,318.8z M215.9,290.6
		c-2.4-3.6-5.2-7.2-8.6-10.4c-6.7-6.3-14.6-10.2-21.8-12.5l1.2-1.2c8.7,4.5,17.8,6.6,24.6,6.6c1.7,0,3.2-0.2,4.6-0.5V290.6z
		 M220.6,158.1c-4.2-3.7-13.6-16.8-13.6-30.2c0-14.9,10.3-25.4,12.9-26.6c3.2,1.5,14.2,11.2,14.2,26.6
		C234.2,141.4,224.8,154.4,220.6,158.1z M260.5,306.6c-9.2,8.7-22.3,12.7-30.6,12.7c-1.9,0-3.1-0.2-3.7-0.4c-1.4-3.9,0.7-20,13-31.6
		c10.3-9.7,24.5-12.3,31.3-12.3c1.2,0,2.2,0.1,2.8,0.2C274.1,279.8,272.2,295.5,260.5,306.6z"/>
	<path class="st0" d="M220,5.8C98.7,5.8,0,104.5,0,225.8c0,58.8,22.9,114,64.4,155.5s96.8,64.4,155.5,64.4
		c121.3,0,219.9-98.7,219.9-220S341.2,5.8,220,5.8z M220,435.2c-54.2,0-105.2-20.5-144.3-57.7l64-64c-0.7-0.6-1.4-1.3-2-1.9
		c-2-1.7-3.9-3.4-5.8-5.2L68.3,370C31,331,10.5,280,10.5,225.8c0-115.5,94-209.4,209.4-209.4c55.8,0,106.6,22,144.2,57.8l-67.5,67.5
		c2.2,2.7,4.6,5.3,7.1,7.7l67.7-67.7c35.8,37.6,57.8,88.4,57.8,144.2C429.4,341.3,335.4,435.2,220,435.2z"/>
</g>
</svg>
