<?xml version="1.0" encoding="utf-8"?>
<!-- Generator: Adobe Illustrator 27.2.0, SVG Export Plug-In . SVG Version: 6.00 Build 0)  -->
<svg version="1.1" id="Layer_1" xmlns="http://www.w3.org/2000/svg" xmlns:xlink="http://www.w3.org/1999/xlink" x="0px" y="0px"
	 viewBox="0 0 48 48" style="enable-background:new 0 0 48 48;" xml:space="preserve">
<style type="text/css">
	.st0{fill:none;stroke:#395542;stroke-width:1.5371;stroke-linecap:round;stroke-linejoin:round;stroke-miterlimit:10;}
</style>
<path class="st0" d="M31.1,15.4c0-5.1-6.4-9.2-14.3-9.2c-7.9,0-14.3,4.1-14.3,9.2c0,2,1,3.9,2.7,5.4v18.5c0,1.7,1.3,3.1,3,3.1h17.2
	c1.6,0,3-1.4,3-3.1V20.8C30.1,19.3,31.1,17.4,31.1,15.4z"/>
<path class="st0" d="M21.9,42.4h17.4c1.6,0,3-1.4,3-3.1V20.8c1.7-1.5,2.7-3.4,2.7-5.4c0-5.1-6.4-9.2-14.3-9.2H16.8"/>
<line class="st0" x1="28.4" y1="20.8" x2="35.1" y2="20.8"/>
<path class="st0" d="M9.3,14.7c0.1,0.2,0.1,0.4-0.1,0.5c-0.2,0.1-0.4,0.1-0.5-0.1c-0.1-0.2-0.1-0.4,0.1-0.5
	C8.9,14.5,9.1,14.5,9.3,14.7z"/>
<path class="st0" d="M10.3,21.2c0.1,0.2,0.1,0.4-0.1,0.5c-0.2,0.1-0.4,0.1-0.5-0.1c-0.1-0.2-0.1-0.4,0.1-0.5
	C9.9,21,10.2,21,10.3,21.2z"/>
<path class="st0" d="M15.9,16.6c0.1,0.2,0.1,0.4-0.1,0.5c-0.2,0.1-0.4,0.1-0.5-0.1c-0.1-0.2-0.1-0.4,0.1-0.5
	C15.5,16.3,15.8,16.4,15.9,16.6z"/>
<path class="st0" d="M24.1,27.5c0.1,0.2,0.1,0.4,0,0.5c-0.2,0.1-0.4,0.1-0.5,0c-0.1-0.2-0.1-0.4,0-0.5
	C23.7,27.3,23.9,27.3,24.1,27.5z"/>
<path class="st0" d="M24.6,33.1c0.1,0.2,0.1,0.4,0,0.5c-0.2,0.1-0.4,0.1-0.5,0s-0.1-0.4,0-0.5C24.2,33,24.4,33,24.6,33.1z"/>
<path class="st0" d="M24.1,20.6c0.1,0.2,0.1,0.4-0.1,0.5c-0.2,0.1-0.4,0.1-0.5-0.1c-0.1-0.2-0.1-0.4,0.1-0.5
	C23.7,20.4,24,20.4,24.1,20.6z"/>
<path class="st0" d="M20.1,30.5c0.1,0.2,0.1,0.4-0.1,0.5c-0.2,0.1-0.4,0.1-0.5-0.1c-0.1-0.2-0.1-0.4,0.1-0.5
	C19.7,30.3,20,30.3,20.1,30.5z"/>
<path class="st0" d="M15.1,11.4c0.1,0.2,0.1,0.4-0.1,0.5c-0.2,0.1-0.4,0.1-0.5-0.1c-0.1-0.2-0.1-0.4,0.1-0.5
	C14.8,11.2,15,11.2,15.1,11.4z"/>
<path class="st0" d="M21.5,37.4c0.1,0.2,0.1,0.4-0.1,0.5c-0.2,0.1-0.4,0.1-0.5-0.1c-0.1-0.2-0.1-0.4,0.1-0.5
	C21.2,37.2,21.4,37.2,21.5,37.4z"/>
</svg>
