<?xml version="1.0" encoding="utf-8"?>
<!-- Generator: Adobe Illustrator 27.2.0, SVG Export Plug-In . SVG Version: 6.00 Build 0)  -->
<svg version="1.1" id="Layer_1" xmlns="http://www.w3.org/2000/svg" xmlns:xlink="http://www.w3.org/1999/xlink" x="0px" y="0px"
	 viewBox="0 0 240 38" style="enable-background:new 0 0 240 38;" xml:space="preserve">
<style type="text/css">
	.st0{fill:#FFFFFF;}
</style>
<g>
	<path class="st0" d="M136.8,28.3c0,3.4-1,5-3,5.6l0,1c5.2-0.3,8.7-3.9,8.7-8.6V8.7c0-2.1,0.6-3.3,2.3-3.3V4.7h-10.3v0.7
		c1.7,0.1,2.3,1.2,2.3,3.3V28.3z"/>
	<path class="st0" d="M214.2,23.7l-0.9-2.5c-0.7-1.8-2-3.1-3.8-3.8v-0.2c3.5-1.2,5.7-3.1,5.7-6.2c0-4.2-3.2-6.4-9.6-6.4h-10.9v0.7
		c1.6,0.1,2.1,1.4,2.1,3.3v15.4c0,2-0.5,3.2-2.1,3.3v0.7h9.8v-0.7c-1.6-0.1-2.1-1.4-2.1-3.3v-6h1.3c1.8,0,2.5,0.5,3.4,2.8
		c1,2.3,3,7.2,3,7.2h7.2v-0.7C215.8,27.3,215,25.8,214.2,23.7 M204.6,16.1h-2.2V6.7h2.2c3.3,0,4.9,1.8,4.9,4.9
		C209.5,14.7,207.9,16.1,204.6,16.1"/>
	<path class="st0" d="M10.5,28.1h10.3v-0.7c-1.7-0.1-2.3-1.8-2.3-4V7h2.8c2.9,0,3.9,1,4.6,3.7h0.7v-6H4.7v6h0.7C6.2,8.1,7.1,7,10,7
		h2.8v16.4c0,2.1-0.6,3.9-2.3,4V28.1z"/>
	<path class="st0" d="M75.3,11c0,7,11.5,5.9,11.5,12c0,2.1-1.9,3.4-4.5,3.4c-3.4,0-5.9-1.5-6.5-4.1h-0.7v4.9
		c2.5,0.7,5.2,1.2,8.1,1.2c6,0,9-2.9,9-6.9c0-7.5-11.5-6.7-11.5-12.1c0-1.9,1.3-3,3.7-3c2.7,0,5.1,1.2,5.8,3.7h0.7v-5
		c-2.1-0.5-4.2-0.8-6.6-0.8C78.4,4.4,75.3,6.9,75.3,11"/>
	<path class="st0" d="M218.4,11c0,7,11.5,5.9,11.5,12c0,2.1-1.9,3.4-4.5,3.4c-3.4,0-5.9-1.5-6.5-4.1h-0.7v4.9
		c2.5,0.7,5.2,1.2,8.1,1.2c6,0,9-2.9,9-6.9c0-7.5-11.5-6.7-11.5-12.1c0-1.9,1.3-3,3.7-3c2.7,0,5.1,1.2,5.8,3.7h0.7v-5
		c-2.1-0.5-4.2-0.8-6.6-0.8C221.5,4.4,218.4,6.9,218.4,11"/>
	<path class="st0" d="M38.4,4.4c-7.9,0-11.2,5.2-11.2,12c0,6.8,3.3,12,11.2,12c7.9,0,11.2-5.2,11.2-12C49.5,9.6,46.2,4.4,38.4,4.4
		 M38.4,26.6c-3.7,0-5.3-4-5.3-10.1c0-6.2,1.6-10.1,5.3-10.1c3.7,0,5.3,4,5.3,10.1C43.7,22.6,42.1,26.6,38.4,26.6"/>
	<path class="st0" d="M157.6,4.4c-7.9,0-11.2,5.2-11.2,12c0,6.8,3.3,12,11.2,12c7.9,0,11.2-5.2,11.2-12
		C168.8,9.6,165.5,4.4,157.6,4.4 M157.6,26.6c-3.7,0-5.3-4-5.3-10.1c0-6.2,1.6-10.1,5.3-10.1c3.7,0,5.3,4,5.3,10.1
		C162.9,22.6,161.3,26.6,157.6,26.6"/>
	<path class="st0" d="M52.5,20.6c0,4.4,3,7.8,9.5,7.8c6.6,0,9.9-3.4,9.9-7.8v-12c0-2,0.4-3.1,2-3.2V4.7h-7.6v0.7
		c1.6,0.1,2,1.2,2,3.2v12c0,3.6-1.8,5.8-5.2,5.8c-3.3,0-4.8-2.2-4.8-5.8v-12c0-2,0.5-3.1,2.1-3.2V4.7h-9.9v0.7
		c1.6,0.1,2.1,1.2,2.1,3.2V20.6z"/>
	<path class="st0" d="M171.7,20.6c0,4.4,3,7.8,9.5,7.8c6.6,0,9.9-3.4,9.9-7.8v-12c0-2,0.4-3.1,2-3.2V4.7h-7.6v0.7
		c1.6,0.1,2,1.2,2,3.2v12c0,3.6-1.8,6-5.2,6c-3.3,0-4.8-2.4-4.8-6v-12c0-2,0.5-3.1,2.1-3.2V4.7h-9.9v0.7c1.6,0.1,2.1,1.2,2.1,3.2
		V20.6z"/>
	<path class="st0" d="M109.2,22.6c0.2,0.9,0.3,0,0.3,0.2c0,1.2-2.3,5.1-5.8,5.1c-1.6,0-3.2-1.4-3.2-4c0-3.6,3-12.6,5.8-19
		c0.3-0.7,0.8-2,1.8-1.6c0.5,0.2,0.7,0.7,0.7,1.4c0,4-3.6,6.6-5.1,13.4c-0.3,1.5-0.4,3.3-0.4,4c0,2.5,0.8,3.8,2.2,3.8
		c1.1,0,3.2-1.2,3.5-3.2H109.2z"/>
	<path class="st0" d="M117.9,25.2c-1.8,1.8-3.9,2.6-5.6,2.6c-2,0-3.4-1.6-3.4-3.9c0-6,5.1-10.8,8.1-10.5c0.8,0.1,1.4,0.6,1.4,1.6
		c0,1.2-0.7,2.7-1.8,4c-1.4,1.5-2.5,2.4-5,3.7c0.2,1.9,1.5,3.3,3.3,3.2c0.9-0.1,1.4-0.2,2.9-1.1C118.7,24.2,119.1,24,117.9,25.2z
		 M115.8,16.8c0.2-1.6-0.7-1.6-1.7-0.7c-1.5,1.5-2.5,3.5-2.7,6C115.3,20.2,115.8,17.4,115.8,16.8z"/>
	<path class="st0" d="M126.2,19.1c0.6-0.6,0.9-1.8,0.9-2.5c-0.1-1.1-0.8-1.3-1.8-1.1c-1.7,0.2-3.4,2.2-3.4,3.6
		c0,0.9,0.7,1.3,2.8,1.6c2.1,0.4,3.6,0.5,3.7,2c0.2,3.1-4.7,5.6-7.3,4.9c-2-0.5-2.3-2.5-2.2-3.1c0-0.2,0.1-0.2,0.2,0
		c0.5,0.4,1.9,1.1,4.4,1.1c1.6,0,3.8-0.9,4-2.1c0.2-1.1-1.7-0.8-3.5-1c-1.9-0.1-3.3-0.6-4-1.3c-0.4-0.4-0.5-0.9-0.5-1.4
		c0-2.7,4.5-6.3,7.6-6.3c1.3,0,2,0.8,2,2.1c0,1.6-1.1,2.8-2.7,3.6C126.2,19.3,125.9,19.4,126.2,19.1z"/>
</g>
</svg>
