<?xml version="1.0" encoding="utf-8"?>
<!-- Generator: Adobe Illustrator 27.2.0, SVG Export Plug-In . SVG Version: 6.00 Build 0)  -->
<svg version="1.1" id="Layer_1" xmlns="http://www.w3.org/2000/svg" xmlns:xlink="http://www.w3.org/1999/xlink" x="0px" y="0px"
	 viewBox="0 0 84 84" style="enable-background:new 0 0 84 84;" xml:space="preserve">
<style type="text/css">
	.st0{fill:none;stroke:#395542;stroke-width:1.932;stroke-linecap:round;stroke-linejoin:round;stroke-miterlimit:10;}
</style>
<path class="st0" d="M25.1,37c-0.8,0.9-1.2,3.8-1.8,5.3C17,41.6,8.7,38.5,2.3,34.2c-1.5-3,1.2-9.7,2.7-11.5"/>
<path class="st0" d="M21.4,42c-0.2,1.1-0.4,2.2-0.5,3.9c-4.7,1.6-11.3,2.6-16.8,1C2.5,44.6,3,37.4,3.8,35.2"/>
<path class="st0" d="M19.6,46.3c0.9,5.1-5.2,11.1-10.4,7.1c-1.5-1-3-3.9-3.9-6.2"/>
<path class="st0" d="M9.2,14.3c1.7-1.7,4.6-4.2,6.6-5.6c5.9,5.1,10.5,11.8,15.1,18.6C32.4,29.8,32,33,30,35c0,0,0,0,0,0c0,0,0,0,0,0
	c-2.1,2.1-5.3,2.4-7.7,0.8c-6.9-4.5-13.5-9.1-18.6-15.1C4.9,18.9,7.4,16,9.2,14.3"/>
<path class="st0" d="M31.8,30.5c0.9-0.8,3.7-1.3,5.3-1.9c-0.7-6.4-3.8-14.6-8-21.1c-3-1.5-9.7,1.1-11.5,2.7"/>
<path class="st0" d="M36.8,26.6c1.1-0.2,2.2-0.4,3.9-0.5c1.7-4.7,2.6-11.3,1-16.8C39.4,7.7,32.2,8.2,30.1,9"/>
<path class="st0" d="M41.1,24.8c5.1,0.9,11.1-5.2,7.1-10.4c-1-1.5-3.9-3-6.2-3.9"/>
<path class="st0" d="M50.8,69.2c-1.1,0.3-3.7,1.9-5.2,2.9c-4.7-4.3-9.6-11.7-12.3-19c0.5-3.3,6.7-7.2,9-7.7"/>
<path class="st0" d="M44.3,70.7c-0.8,0.8-1.6,1.6-2.7,2.9C36.8,72.1,31,69,27.5,64.4c-0.1-2.8,4.6-8.3,6.5-9.6"/>
<path class="st0" d="M40.2,73.1C38,77.7,29.4,79,27.6,72.7c-0.6-1.7-0.1-4.9,0.5-7.3"/>
<path class="st0" d="M50.6,41.1c2.4-0.4,6.2-0.7,8.6-0.7c1.8,7.6,1.6,15.7,1.2,23.9c-0.1,2.9-2.3,5.3-5.2,5.8c0,0,0,0,0,0
	c0,0,0,0,0,0c-2.9,0.5-5.7-1.1-6.7-3.9c-2.9-7.7-5.6-15.3-6.2-23.2C44.5,42.3,48.2,41.4,50.6,41.1"/>
<path class="st0" d="M59,68c1.2-0.1,4.2,0.6,5.8,1c3.2-5.6,5.6-14.1,5.9-21.8c-1.5-3-8.6-4.8-10.9-4.6"/>
<path class="st0" d="M65.7,67.3c1,0.5,2,1,3.4,1.9c4.1-2.8,8.7-7.6,10.7-13c-0.8-2.7-6.9-6.5-9.1-7.2"/>
<path class="st0" d="M70.3,68.4c3.5,3.7,12.1,2.3,11.9-4.2c0.1-1.8-1.4-4.7-2.7-6.8"/>
</svg>
